<?xml version="1.0" encoding="UTF-8"?><svg xmlns="http://www.w3.org/2000/svg" xmlns:xlink="http://www.w3.org/1999/xlink" height="498.5" preserveAspectRatio="xMidYMid meet" version="1.0" viewBox="38.3 9.1 463.4 498.5" width="463.4" zoomAndPan="magnify"><g id="change1_1"><path d="m 261.58012,506.75162 c -0.20735,-0.55479 0.0772,-1.17765 0.63122,-1.38472 0.55478,-0.20735 1.17737,0.0764 1.38473,0.63122 0.20706,0.55399 -0.0772,1.17765 -0.63123,1.38472 -0.55477,0.20734 -1.17765,-0.0772 -1.38472,-0.63122 z m 11.32207,-3.51726 c -0.0783,-0.20953 0.41882,-1.2998 1.10463,-2.42323 1.13009,-1.85133 1.17904,-1.829 0.52228,0.23807 -0.68923,2.17118 -1.31736,3.01456 -1.62745,2.18492 z m -19.09621,2.33711 c -1.64055,-1.85515 -1.64066,-1.85691 -0.23809,-3.0973 1.63971,-1.44958 3.5473,0.85212 2.38583,2.87889 -0.69152,1.20672 -1.22559,1.26134 -2.14774,0.21841 z m 4.67168,-4.04685 c -0.32306,-0.8643 -0.0286,-1.46083 0.65344,-1.32526 0.68293,0.1355 1.40034,0.67305 1.59532,1.19473 0.1949,0.52144 -0.0994,1.11819 -0.65344,1.32525 -0.55399,0.20707 -1.27227,-0.3304 -1.59532,-1.19472 z m 15.11012,-7.44053 c 0.18655,-0.9408 -0.30369,-3.02203 -1.09053,-4.62378 -1.07906,-2.19728 -1.04203,-2.73939 0.16649,-2.21326 2.09384,0.91686 3.38504,6.3048 1.81279,7.56436 -0.85487,0.68495 -1.12434,0.46541 -0.88875,-0.72732 z m -16.6099,3.42795 c -0.11184,-0.29922 0.0392,-2.66143 0.33558,-5.24918 0.60336,-5.2675 0.44812,-6.37718 -0.68742,-4.91268 -0.42663,0.55023 -0.9448,0.54579 -1.15185,-0.008 -0.57711,-1.54401 0.93005,-2.97408 1.88652,-1.78995 1.19838,1.48313 3.89035,-1.19538 3.16139,-3.14569 -0.43089,-1.15282 -1.10809,-1.21494 -2.37913,-0.21821 -2.16087,1.69505 -2.66537,0.74025 -1.35401,-2.5626 0.68468,-1.72473 0.5936,-2.3227 -0.30246,-1.98778 -0.78574,0.29369 -1.36948,-0.37821 -1.50801,-1.73554 -0.12423,-1.21814 -0.5254,-1.82919 -0.89038,-1.35846 -0.36485,0.47107 -1.50784,-0.5424 -2.53955,-2.25146 -1.96665,-3.25781 -4.79512,-3.92921 -11.4186,-2.71088 -2.51212,0.46226 -3.55698,1.28432 -4.33658,3.41994 -0.96479,2.63981 -1.14566,2.73338 -2.96672,1.53583 -1.81297,-1.19227 -1.93159,-1.12341 -1.82173,1.05719 0.0644,1.28327 -0.30546,2.49106 -0.82253,2.68433 -0.5167,0.19312 -0.66503,1.08709 -0.32878,1.98672 0.49832,1.33322 0.80233,1.302 1.64542,-0.16905 0.56877,-0.99232 1.88438,-1.79712 2.92356,-1.78835 1.03906,0.008 2.36995,-0.82252 2.96007,-1.83997 0.88515,-1.53445 1.0836,-1.5623 1.14554,-0.16042 0.041,0.93247 -0.91787,2.74068 -2.13119,4.01841 -1.90193,2.00304 -2.15655,3.96239 -0.83843,6.45123 0.74096,1.39918 -3.97788,0.93412 -4.86436,-0.47952 -1.8915,-3.01561 -2.67939,5.45243 -1.04635,11.24113 1.14872,4.07289 1.17264,5.77428 0.0861,6.18039 -1.16766,0.43643 -1.6448,-0.27531 -2.15611,-3.21486 -0.47508,-2.73282 -1.01862,-3.64489 -1.96806,-3.30278 -0.89436,0.32566 -1.04737,0.10658 -0.47924,-0.682 1.48826,-2.06552 1.5886,-6.76166 0.18784,-8.79346 -0.99217,-1.43962 -0.76115,-3.42553 0.84267,-7.23344 2.57477,-6.11371 1.11588,-8.35645 -4.47214,-6.87457 -3.75612,0.99596 -5.81833,3.98987 -6.46678,9.38791 -0.50505,4.20383 -4.2572,6.03567 -5.04367,2.46229 -0.33469,-1.51983 0.11075,-2.51436 1.22459,-2.73493 0.96256,-0.19062 1.75705,-1.13344 1.76533,-2.09581 0.0108,-1.25856 -0.65119,-1.50013 -2.3571,-0.86252 -2.4311,0.90867 -6.99909,-1.56416 -8.04155,-4.35321 -0.81434,-2.17871 -2.99045,-2.27416 -4.18837,-0.18374 -0.72444,1.26407 -1.48289,1.61719 -2.48861,1.15902 -1.00418,-0.45776 -1.19963,-0.97828 -0.63782,-1.70261 0.4448,-0.5742 0.26964,-1.65272 -0.38881,-2.39791 -0.65919,-0.74481 -0.74264,-1.9384 -0.19413,-2.64906 0.79456,-1.02514 -0.2623,-2.93791 -5.07557,-9.18767 -3.34353,-4.34124 -6.79223,-8.66063 -7.66374,-9.59856 -2.65112,-2.85317 -15.35336,-18.94059 -33.61745,-42.57676 -11.76319,-15.22306 -14.55225,-18.1542 -11.69178,-12.28742 1.78953,3.66973 1.81944,4.07401 0.18814,2.51443 -1.0694,-1.02188 -2.32804,-1.71459 -2.79774,-1.53904 -1.23765,0.46259 0.27532,3.94227 4.48419,10.31281 9.57389,14.49175 13.90662,22.40666 7.34204,13.41227 -6.31021,-8.64588 -16.85412,-25.94896 -21.95149,-36.02361 -2.82257,-5.57928 -6.60179,-12.69649 -8.39777,-15.81619 -1.79569,-3.11989 -4.42452,-8.34076 -5.8412,-11.60224 -4.00396,-9.21679 -8.42508,-17.42719 -9.72596,-18.06043 -1.705702,-0.83028 -3.304704,3.31694 -2.362226,6.12625 0.433479,1.30481 0.357055,1.89184 -0.177908,1.30764 -2.331343,-2.54485 -3.705212,6.50158 -1.772612,11.67213 0.562032,1.50371 0.758682,3.85215 0.436914,5.2187 -0.617005,2.62045 1.585987,8.92782 5.313872,15.21411 l 2.23082,3.76133 -2.54639,-2.49459 c -3.498197,-3.42691 -9.767,-22.6266 -9.632532,-29.50215 0.0349,-1.79179 -0.05376,-3.56793 -0.197229,-3.94703 -0.530315,-1.39959 0.30087,-15.93328 1.096376,-19.18018 0.914156,-3.7315 0.518768,-5.76052 -1.011114,-5.18869 -0.554783,0.20736 -0.838582,0.82993 -0.63122,1.3847 0.207065,0.55399 -0.303444,1.26219 -1.135289,1.57312 -0.831535,0.3108 -1.810258,-0.23299 -2.174818,-1.20835 -0.364574,-0.97542 -1.781815,-2.001 -3.149376,-2.27898 -1.367435,-0.27767 -2.750791,-1.21259 -3.073816,-2.07683 -0.387308,-1.03622 -1.117426,-1.15761 -2.143617,-0.35651 -1.073663,0.83819 -2.39517,0.51623 -4.261409,-1.03812 -2.480777,-2.06611 -2.653852,-2.52288 -2.085786,-5.50767 0.563138,-2.96494 0.423671,-3.34292 -1.570442,-4.25012 -1.991991,-0.90798 -2.314879,-0.63515 -3.632609,3.06863 -0.79551,2.23579 -1.70247,4.16083 -2.01542,4.2778 -1.290031,0.48219 -1.191433,-1.92433 0.219895,-5.36025 0.827052,-2.01349 1.189292,-4.50191 0.80513,-5.52972 -0.384162,-1.02779 -0.244487,-2.03838 0.3095,-2.24544 0.554781,-0.20736 1.226764,0.18732 1.494369,0.87742 0.338726,0.88316 0.59651,0.72954 0.857014,-0.51298 0.242502,-1.15657 -0.538075,-2.43422 -2.257143,-3.69622 -2.486356,-1.82451 -2.516198,-1.92758 -0.554016,-1.91057 1.365099,0.0121 1.697705,-0.27364 0.973494,-0.83514 -0.605111,-0.46943 -0.641948,-1.44388 -0.08156,-2.1664 0.761963,-0.98311 0.605973,-1.54977 -0.620211,-2.25227 -0.901201,-0.51615 -2.623772,-2.8427 -3.82823,-5.16947 -1.204354,-2.32674 -2.689935,-4.34375 -3.301182,-4.48227 -1.784569,-0.40434 -5.011091,-3.61792 -5.82872,-5.80544 -0.414541,-1.10909 -1.758017,-3.09654 -2.985069,-4.41652 -1.227004,-1.3201 -2.287474,-2.83017 -2.356059,-3.35587 -0.06901,-0.52597 -0.754852,-0.39807 -1.525674,0.28352 -0.770583,0.6815 -1.590714,1.31005 -1.822549,1.39672 -0.231759,0.0866 -0.167209,0.83769 0.143679,1.66945 0.313949,0.83996 -0.330854,1.84686 -1.450818,2.26546 -1.108843,0.41445 -2.206158,0.24477 -2.438879,-0.37786 -0.292202,-0.78177 -0.745447,-0.56896 -1.465965,0.68818 -0.581713,1.01525 -1.209512,1.37427 -1.419689,0.81194 -0.207355,-0.55476 0.116589,-1.8686 0.719211,-2.92032 0.908239,-1.58497 1.345356,-1.72329 2.552569,-0.80754 1.207109,0.91596 1.350264,0.81225 0.835027,-0.60518 -0.342803,-0.94024 -1.188813,-1.82292 -1.882697,-1.96039 -1.843643,-0.3659 -1.115086,-2.44369 1.153792,-3.29173 1.100022,-0.41115 2.213682,-0.0431 2.543855,0.8402 0.323053,0.86431 0.877845,1.19669 1.233191,0.73841 0.355125,-0.45836 -0.07277,-2.13802 -0.951135,-3.73299 -1.820466,-3.30474 -1.150388,-3.93692 2.608263,-2.4615 2.583355,1.01412 2.570582,0.92237 -0.835085,-6.00619 -2.812026,-5.72043 -3.194158,-7.13488 -2.045722,-7.56413 1.961178,-0.73303 4.604343,0.63449 5.414231,2.8013 0.372976,0.99788 0.991252,1.61382 1.373675,1.36884 2.174778,-1.39358 6.677393,-0.005 7.814829,2.40905 0.683388,1.45084 1.652776,2.95532 2.15339,3.34358 1.634836,1.26754 2.825092,0.0443 2.029087,-2.08537 -0.428038,-1.1452 -0.627429,-3.20089 -0.443861,-4.5679 0.243128,-1.80735 0.101741,-2.18561 -0.518101,-1.38615 -0.468637,0.60482 -1.042154,0.59214 -1.273838,-0.0278 -0.231688,-0.61988 -0.77043,-0.67694 -1.196342,-0.1272 -0.426624,0.55023 -0.972968,0.4704 -1.21444,-0.17565 -0.244735,-0.65478 0.363841,-1.16834 1.37286,-1.15988 0.996663,0.008 2.511876,-0.77876 3.366586,-1.75041 1.761582,-2.0015 1.123229,-5.2297 -0.712765,-3.60588 -0.822147,0.72699 -1.492425,0.23308 -2.179529,-1.60523 -0.636464,-1.70283 -0.513757,-2.43696 0.341698,-2.04682 0.855896,0.39018 2.891874,-1.62452 5.677336,-5.6182 2.388721,-3.4245 4.97508,-6.24907 5.747406,-6.27686 0.771955,-0.028 -0.707991,2.75188 -3.289569,6.17708 -4.851223,6.43643 -5.390332,8.09516 -1.52772,4.7005 1.223792,-1.07614 5.616225,-3.47274 9.760689,-5.32683 8.195947,-3.66674 10.120557,-6.1897 7.803685,-10.23036 -1.11155,-1.9381 -0.34373,-3.03964 2.605629,-3.73986 0.368589,-0.0835 2.349439,-0.66105 4.405567,-1.27579 2.331923,-0.69703 3.930507,-0.60345 4.248785,0.24808 0.280632,0.75083 -0.04837,1.2548 -0.730603,1.11884 -0.758278,-0.15076 -0.572353,1.54218 0.47677,4.34908 0.944688,2.52745 1.811835,4.92017 1.924449,5.31805 0.112506,0.39757 2.124844,0.59619 4.472671,0.44049 6.48184,-0.43009 18.30952,1.15804 21.53851,2.89203 l 2.87451,1.54357 -2.31307,-0.0415 c -1.27221,-0.0229 -2.99762,0.20148 -3.83441,0.49849 -0.83756,0.29492 -2.93577,0.21357 -4.66465,-0.186 -4.81469,-1.11208 -9.62114,-1.15253 -9.21939,-0.0776 0.19638,0.52542 -0.41823,0.94781 -1.36525,0.93994 -0.94739,-0.008 -1.64148,-0.42181 -1.54284,-0.91899 0.0982,-0.49715 -0.37411,-0.71768 -1.05117,-0.48905 -0.67718,0.22592 -1.81617,0.43821 -2.53167,0.46775 -0.715639,0.0287 -1.219384,0.4106 -1.119731,0.84637 0.09998,0.43664 0.410101,0.6979 0.688497,0.58119 2.628104,-1.10256 26.286664,5.13751 35.423474,9.3436 5.47436,2.52004 6.82989,3.64945 7.57047,6.30719 0.49634,1.78052 2.01938,4.05961 3.38484,5.06456 2.80111,2.06134 4.47655,6.46788 2.93711,7.71299 -0.56148,0.45319 -1.98792,-0.14253 -3.17002,-1.32527 -1.64601,-1.64662 -2.36326,-1.77644 -3.06352,-0.55442 -0.75379,1.31527 -0.43782,2.10353 1.79957,4.48793 1.49282,1.5908 2.28302,3.05345 1.75665,3.25019 -0.52621,0.19668 -1.15439,-0.17186 -1.39605,-0.81838 -0.24177,-0.64685 -0.61195,-0.79749 -0.82334,-0.3345 -0.58398,1.28095 5.88007,10.0998 6.66288,9.09017 0.37588,-0.48512 -0.0978,-2.09147 -1.05377,-3.56953 -0.95588,-1.47806 -1.34676,-2.83362 -0.86896,-3.0122 0.47778,-0.17858 1.41842,0.84342 2.09091,2.27091 0.67275,1.42739 2.36639,2.89148 3.76416,3.25341 1.39794,0.36215 2.89912,1.61497 3.33632,2.78468 1.14536,3.06438 1.78893,0.85742 0.70431,-2.41519 -0.8605,-2.59509 0.80817,-5.83251 1.73201,-3.36085 0.23938,0.64049 1.36954,1.59011 2.51213,2.11084 1.14234,0.52073 2.26997,1.48395 2.50571,2.14055 0.2895,0.79762 -0.0189,0.85462 -0.92301,0.17042 -2.96534,-2.24546 -0.16295,5.58465 4.33194,12.10291 3.86444,5.60444 16.0766,21.77291 19.34224,25.60858 0.51563,0.60509 0.2174,1.03904 -0.70774,1.03069 -0.87833,-0.007 -1.591,-0.74897 -1.58314,-1.64732 0.008,-0.89846 -0.43085,-1.46715 -0.97525,-1.26367 -0.54445,0.2035 -1.4193,-0.77895 -1.94421,-2.18335 -0.5249,-1.40433 -1.99609,-3.09214 -3.26874,-3.75102 -1.27297,-0.65871 -2.92636,-2.83471 -3.67421,-4.83557 -1.09056,-2.91769 -1.71841,-3.47215 -3.17128,-2.80077 -1.51661,0.70079 -1.49854,1.31541 0.11022,3.77339 1.05683,1.61501 3.21644,4.14326 4.79885,5.61852 1.58242,1.47526 3.11114,3.30854 3.39719,4.07388 0.76884,2.05698 -5.05941,3.11664 -6.26944,1.13991 -0.53248,-0.87043 -0.56556,-1.65823 -0.0792,-1.74874 2.46568,-0.46118 2.39148,-1.24122 -0.24752,-2.59826 -2.74702,-1.41256 -4.23796,-3.18858 -8.25831,-9.8372 -0.93514,-1.54597 -2.35779,-3.2056 -3.16206,-3.68779 -2.09811,-1.2579 -3.1677,0.61414 -1.29344,2.26372 0.85165,0.74903 1.63161,1.58921 1.73412,1.86685 0.25022,0.67715 7.61409,10.91994 18.22761,25.35318 5.97343,8.12336 7.55706,10.15096 10.07038,12.89344 0.86288,0.94123 2.70111,3.00772 4.08561,4.59214 1.87839,2.14952 2.94359,2.5805 4.19697,1.698 0.92396,-0.65017 1.82485,-0.89734 2.00191,-0.54925 1.62455,3.19446 3.27408,5.14983 5.01413,5.94304 2.59113,1.18108 3.26168,2.75657 1.16547,2.73827 -1.97395,-0.0175 -2.12374,3.72979 -0.18459,4.61375 0.98346,0.4483 1.28898,0.27443 0.97809,-0.55735 -0.2486,-0.6651 0.3984,-1.52745 1.43788,-1.91598 1.3402,-0.50092 2.16194,0.0214 2.82491,1.7952 0.51424,1.37583 0.50995,2.41705 -0.009,2.31391 -0.51983,-0.10335 -1.20616,0.56115 -1.52479,1.47728 -0.41361,1.1876 0.38949,2.61267 2.8022,4.97107 1.86007,1.81852 2.94572,2.43542 2.41257,1.37104 -0.53345,-1.06429 -1.57466,-2.40027 -2.31372,-2.96888 -0.77041,-0.59217 -1.05958,-1.65867 -0.67678,-2.49798 0.4692,-1.02926 1.19907,-0.67522 2.4568,1.19223 2.53672,3.76612 4.72824,4.98766 5.17164,2.88265 0.1876,-0.88963 0.52721,-1.14003 0.75506,-0.55629 0.2271,0.58449 0.0772,2.19102 -0.33424,3.57128 -0.73866,2.4765 -0.75934,2.48333 -1.56335,0.52105 -0.78179,-1.89808 -0.83448,-1.88663 -1.20232,0.27299 -0.21266,1.2461 0.14019,2.49267 0.78315,2.77047 3.39774,1.4672 5.0356,-0.73509 10.66475,-14.34005 3.24713,-7.84793 4.5745,-11.68658 2.94976,-8.53026 -1.62476,3.15624 -3.75744,7.04701 -4.73934,8.64621 -1.64019,2.67136 -1.65149,2.57093 -0.13914,-1.23626 0.90533,-2.27912 1.16031,-4.69315 0.56668,-5.36441 -0.68617,-0.77581 0.91263,-4.82726 4.38739,-11.11825 5.43155,-9.83363 14.01555,-29.75659 16.35755,-37.96473 0.69052,-2.41988 0.70276,-4.95314 0.0282,-5.81342 -2.16181,-2.75673 0.0601,-3.27558 2.42866,-0.56765 2.1176,2.42112 2.15578,2.99546 0.44757,6.7426 -1.02694,2.25284 -1.73126,4.45961 -1.56519,4.90391 0.16613,0.44446 -3.31379,8.76836 -7.73311,18.49792 -4.41931,9.72947 -7.55883,17.29849 -6.97674,16.82005 1.15318,-0.94754 10.07529,-19.77056 19.54776,-41.23896 3.29682,-7.47178 8.90765,-19.32662 12.46862,-26.34409 3.56096,-7.01754 8.10764,-16.21281 10.10377,-20.43401 3.82525,-8.08917 6.44848,-13.11807 13.02669,-24.97276 4.98851,-8.9899 11.47454,-21.12322 11.85108,-22.1695 0.15477,-0.43053 1.38444,-2.67339 2.73227,-4.98399 1.34784,-2.31054 4.42265,-7.91483 6.833,-12.45395 2.41026,-4.53917 5.97213,-10.91511 7.91525,-14.16879 1.94303,-3.25366 4.71456,-8.28626 6.15901,-11.1835 1.44439,-2.89731 4.19547,-7.98487 6.11341,-11.30567 1.91794,-3.32079 3.62691,-6.35555 3.79761,-6.74398 0.1705,-0.38848 0.89749,-1.44264 1.61506,-2.34268 4.34746,-5.45319 9.6387,-13.65159 9.33505,-14.46401 -0.1961,-0.52461 0.10766,-1.12762 0.67587,-1.33998 0.56829,-0.21241 2.94571,-3.18647 5.28404,-6.60931 2.33828,-3.42293 7.14842,-10.22896 10.68909,-15.12461 3.54078,-4.89561 6.57799,-9.631946 6.74946,-10.525056 0.17164,-0.89364 0.7744,-1.79688 1.33996,-2.00827 1.15678,-0.43238 7.36756,-9.03455 9.32473,-12.915187 0.70351,-1.394807 1.78838,-2.726489 2.41093,-2.959181 0.62225,-0.232572 1.73752,-1.554068 2.47786,-2.936506 1.34703,-2.515301 3.00661,-4.669909 6.10079,-7.920367 0.90742,-0.953351 3.94945,-4.225031 6.76001,-7.270607 6.08613,-6.594963 7.33991,-6.026059 1.76721,0.801947 -2.15487,2.640405 -3.67526,4.911413 -3.37847,5.046704 1.26196,0.575236 9.1112,-11.308851 8.02528,-12.150802 -0.77306,-0.599314 -0.50157,-0.886952 0.82618,-0.875944 1.09367,0.0094 1.56684,-0.301611 1.05866,-0.695113 -0.50553,-0.391764 -0.56484,-1.169862 -0.1315,-1.728688 0.43328,-0.559028 0.96476,-0.542414 1.18103,0.03611 0.21626,0.578592 1.90997,-0.768101 3.76254,-2.995884 1.85319,-2.226437 3.0528,-4.51486 2.66604,-5.08525 -0.38674,-0.570042 -0.13083,-0.923752 0.56778,-0.784801 0.6994,0.138399 1.13871,-0.116265 0.97634,-0.566648 -0.16256,-0.450312 1.44087,-2.501883 3.5628,-4.558657 2.12183,-2.056734 3.96754,-4.4365 4.10143,-5.288336 0.13407,-0.851514 1.12172,-2.084721 2.19507,-2.739819 1.07326,-0.655333 2.62623,-1.96331 3.45068,-2.907274 0.82441,-0.944053 2.20108,-2.258584 3.05893,-2.921512 0.95674,-0.73933 1.19995,-2.306194 0.62901,-4.052498 -0.56571,-1.731356 -0.49182,-2.223369 0.1892,-1.255602 1.37143,1.948511 2.52096,1.619441 3.42607,-0.981155 0.69712,-2.002184 3.10043,-2.402962 2.71336,-0.452432 -0.11669,0.588151 0.33727,1.178308 1.0085,1.311498 0.67133,0.133512 1.45234,-0.898334 1.73572,-2.292617 0.59635,-2.933658 1.81213,-3.733615 2.57446,-1.694036 0.29041,0.777012 -0.51945,2.794831 -1.79979,4.483687 l -2.32789,3.070778 3.12947,0.420869 c 2.48663,0.334501 3.43703,0.02034 4.62705,-1.529548 1.29513,-1.686586 1.60006,-1.676637 2.25441,0.07405 0.41621,1.113527 1.35831,1.799649 2.09294,1.525066 1.9641,-0.734122 4.27417,-6.929003 3.07541,-8.247351 -0.76447,-0.840075 -0.92935,-0.799608 -0.63863,0.157286 0.41166,1.35538 -1.42335,2.595663 -1.90081,1.284853 -0.35618,-0.976024 4.14876,-6.3961862 4.99497,-6.0104492 0.79377,0.361837 1.41646,9.1557132 0.91623,12.9293232 -0.37798,2.850961 -2.0583,6.186265 -3.40271,6.754071 -0.4147,0.173126 0.0783,-1.620264 1.09385,-3.98908 1.01562,-2.368811 1.61426,-4.928298 1.33042,-5.687678 -0.28389,-0.759557 -1.49259,0.847334 -2.68618,3.570582 -2.27468,5.190082 -1.61643,10.29113 1.19254,9.241224 0.84899,-0.317327 1.55036,-1.351968 1.55861,-2.29913 0.008,-0.947399 0.47634,-1.630673 1.04007,-1.518811 0.56385,0.11217 1.1463,-0.410328 1.29532,-1.158037 0.14867,-0.749359 1.33647,-1.481343 2.63967,-1.627963 3.71934,-0.417498 4.30473,-2.208696 2.29974,-7.041009 -2.40769,-5.80273 -0.84593,-7.607991 1.72542,-1.994422 1.63136,3.561148 2.10151,3.959896 2.9426,2.492674 0.8264,-1.442114 1.31747,-1.235979 2.81885,1.185342 2.23195,3.599798 4.25183,4.219122 3.22625,0.98949 -0.59055,-1.858207 -0.50144,-2.011909 0.40963,-0.709417 0.63914,0.913788 0.69872,2.830161 0.13164,4.258731 -1.08297,2.728304 -4.48275,4.704049 -5.12725,2.979717 -0.20705,-0.553987 0.0764,-1.177355 0.63123,-1.384715 0.55399,-0.207063 0.6742,-1.26972 0.26628,-2.361096 -0.50446,-1.349639 -1.15564,-1.618048 -2.03675,-0.838968 -0.71228,0.629861 -1.0787,1.724287 -0.81423,2.431846 0.26461,0.707951 -0.26672,1.813004 -1.18047,2.456291 -0.91366,0.643622 -1.88156,3.326198 -2.1507,5.961812 -0.46481,4.552037 -0.36223,4.866929 2.04775,6.286971 1.45304,0.856149 3.6992,1.060552 5.2567,0.478403 2.40928,-0.900513 2.75545,-0.697031 3.03415,1.784829 0.31014,2.763368 0.34571,2.766629 2.63224,0.241727 1.27483,-1.407908 3.42974,-5.406604 4.78886,-8.886142 2.42559,-6.210113 4.29998,-7.892857 3.68306,-3.306576 -0.32035,2.381928 -3.87295,9.532663 -7.66927,15.436946 l -2.13217,3.316102 2.82153,-2.011705 c 1.55184,-1.106481 3.62892,-2.928946 4.61569,-4.050179 2.51635,-2.859171 3.42404,-2.002535 1.40118,1.322666 -0.92744,1.524371 -1.61994,3.152975 -1.53871,3.619034 0.0811,0.466301 -0.29129,1.81015 -0.82764,2.986735 -1.19576,2.623281 0.532,4.386973 1.92184,1.961771 1.22342,-2.134761 5.10621,-0.692822 4.62775,1.718636 -0.25377,1.278906 -0.49042,1.36402 -1.234,0.4431 -1.19517,-1.479342 -2.94184,0.772129 -2.18025,2.80973 0.43407,1.161306 1.31255,1.166561 3.39339,0.02048 1.54428,-0.850385 2.7211,-1.110281 2.61546,-0.576867 -0.1055,0.53332 1.31293,0.814006 3.15282,0.624093 l 3.34515,-0.345239 -1.71759,4.128586 c -0.94467,2.270657 -1.88441,5.369306 -2.08842,6.885876 -0.28932,2.151347 -0.7674,2.619318 -2.17532,2.129101 -1.32486,-0.461194 -2.24679,-0.125575 -3.46951,1.260555 -2.20341,2.503592 -1.77608,3.331543 0.775,1.502341 l 2.03831,-1.461987 -1.69333,2.11684 c -2.32087,2.901272 -6.34655,15.630542 -5.21951,16.504352 0.81265,0.63021 -0.80581,2.94997 -2.75078,3.94244 -0.3997,0.20363 -1.32202,1.8857 -2.0495,3.73723 -0.72754,1.851566 -2.94891,5.239546 -4.93643,7.529106 -1.98745,2.28946 -6.76104,8.62213 -10.60778,14.07254 -3.84684,5.45043 -7.81876,10.72925 -8.82651,11.73077 -1.00766,1.00169 -3.23193,3.6087 -4.94262,5.79353 -1.71067,2.18491 -3.51016,4.13048 -3.99875,4.32351 -1.48232,0.58123 3.65619,-7.07757 15.78551,-23.54609 7.87622,-10.69383 11.08135,-15.86161 10.11173,-16.30363 -0.96929,-0.44185 -3.10148,1.71916 -6.72597,6.81792 -2.91849,4.10582 -5.15708,7.86442 -4.97468,8.35245 0.18244,0.48811 -0.57549,1.22647 -1.68425,1.6409 -1.10875,0.41443 -1.83646,1.23366 -1.61693,1.82098 0.21951,0.58731 -0.13536,0.96166 -0.78779,0.83176 -1.89324,-0.37565 -1.34468,-3.54915 0.75103,-4.33248 1.05623,-0.39478 1.64584,-1.41478 1.32072,-2.28465 -0.32307,-0.86432 -0.0961,-1.47418 0.50366,-1.35494 0.60004,0.11951 1.82946,-1.40293 2.73181,-3.38315 0.95279,-2.09015 2.37032,-3.59327 3.38037,-3.58447 0.95683,0.008 1.48657,-0.3322 1.1772,-0.75748 -0.73795,-1.01354 2.43444,-6.891106 3.74455,-6.938196 0.55775,-0.0203 1.08814,0.38207 1.17812,0.894066 0.31002,1.76604 3.25958,1.5448 4.10403,-0.307656 1.18639,-2.60261 0.61274,-3.47259 -2.43979,-3.69986 -1.83108,-0.13604 -3.1499,0.36233 -4.27004,1.61413 -2.44295,2.729816 -8.13238,10.599076 -11.17005,15.449636 -1.4838,2.36931 -2.83228,3.92696 -2.99661,3.46139 -0.56539,-1.60963 0.34939,-3.65392 2.32737,-5.1895 1.09189,-0.84773 1.69751,-1.99385 1.34564,-2.5468 -0.35154,-0.55334 0.57335,-1.90934 2.05598,-3.01392 3.20299,-2.38631 7.61586,-9.544886 5.36374,-8.701116 -2.63777,0.9888 -6.04888,5.267886 -9.44063,11.844626 -0.70644,1.36978 -1.54274,2.45774 -1.85844,2.41779 -0.78354,-0.0997 -9.8476,11.49952 -15.21714,19.47319 -2.4166,3.58851 -4.84607,6.69364 -5.39894,6.90029 -0.55242,0.20647 -0.8562,0.7741 -0.67408,1.26135 0.18215,0.48731 -0.81902,1.958 -2.22477,3.2685 -1.40565,1.31054 -2.40676,2.78141 -2.2247,3.26849 0.18214,0.4873 -0.28324,1.11533 -1.03373,1.39584 -0.75083,0.28065 -2.11055,1.95194 -3.02212,3.71435 -0.91152,1.76229 -2.87811,4.65552 -4.37021,6.4293 -1.49205,1.77376 -2.83321,3.5947 -2.9802,4.04648 -0.14677,0.45195 -1.61499,2.53339 -3.26201,4.62578 -1.64705,2.09231 -3.61029,5.13822 -4.36276,6.76871 -0.75247,1.63049 -2.47875,4.40042 -3.83614,6.15542 -1.35739,1.755 -4.46149,6.10042 -6.89789,9.65655 -2.43645,3.5562 -4.77643,6.30786 -5.19992,6.11481 -0.88424,-0.4031 -2.87587,3.5173 -2.42114,4.76558 0.39301,1.07462 -4.29945,7.72024 -5.86237,8.30441 -0.65875,0.24622 -1.02826,0.90085 -0.8209,1.45563 0.20736,0.55477 -0.007,1.02188 -0.47366,1.03907 -0.4678,0.0166 -0.75602,0.28367 -0.64009,0.59383 0.11574,0.30954 -0.49113,2.53487 -1.3486,4.94497 -1.42279,3.99914 -1.37141,4.43473 0.58841,4.98488 1.77175,0.49731 1.93278,0.79261 0.92032,1.68781 -0.73973,0.6537 -2.03459,0.29824 -3.26051,-0.89552 -1.11817,-1.08941 -1.52764,-1.88 -0.90916,-1.75721 0.61839,0.12247 0.92267,-0.31769 0.67318,-0.98522 -0.2483,-0.6643 0.12449,-2.08458 0.82904,-3.15576 0.70438,-1.07106 0.90596,-2.11815 0.44799,-2.32698 -0.45793,-0.20875 -1.93674,1.72332 -3.28622,4.29354 -1.34947,2.57021 -3.27873,5.91036 -4.28735,7.42257 -2.06627,3.09792 -1.94468,4.44908 0.40224,4.46958 1.07964,0.009 1.23759,-0.49883 0.48784,-1.56334 -1.52457,-2.16462 2.47759,-6.36647 4.20412,-4.41412 1.59244,1.80069 1.64015,2.09629 0.40997,2.5561 -0.58732,0.21951 -0.95703,-0.15971 -0.82121,-0.84184 0.37876,-1.90889 -1.557,-0.77895 -2.29463,1.33889 -0.51539,1.48044 -0.18595,1.95649 1.56753,2.26506 1.92912,0.33946 2.07127,0.59686 1.08485,1.96346 -0.8126,1.12596 -1.61728,1.26392 -2.83188,0.48497 -0.95642,-0.6131 -2.30937,-0.54556 -3.10132,0.15478 -1.59643,1.41169 -1.18527,3.33767 0.91733,4.29595 0.97446,0.44353 0.51778,1.68279 -1.44752,3.92741 -2.50807,2.86487 -3.06222,3.13322 -4.3893,2.12544 -1.21234,-0.92026 -1.34622,-0.68215 -0.66415,1.1802 0.55979,1.5208 0.34976,2.23294 -0.5972,2.04517 -0.99581,-0.19768 -1.02389,0.19544 -0.0889,1.25291 1.92677,2.17874 -1.50384,8.07576 -5.58702,9.60375 -1.94383,0.72735 -3.17351,1.88266 -3.18331,2.98952 -0.0121,1.38358 0.39546,1.48155 1.74984,0.41959 2.9142,-2.28525 1.96621,1.07426 -2.26788,8.03713 -2.11734,3.4819 -4.0302,5.84777 -4.25085,5.25745 -0.53635,-1.43498 -5.06042,4.2332 -5.07893,6.36348 -0.0121,1.3791 0.16993,1.3428 1.06119,-0.21211 1.45951,-2.54684 2.96981,-1.66723 1.74627,1.01702 -1.07168,2.35096 -4.41291,4.12299 -4.01769,2.13035 0.13552,-0.68294 -0.23391,-1.06145 -0.82123,-0.84193 -0.58731,0.21953 -0.89803,0.85216 -0.69064,1.40703 0.20736,0.55477 -0.30342,1.26218 -1.1352,1.57307 -0.95732,0.35783 -1.15175,1.52908 -0.52985,3.19294 0.68491,1.83243 0.49579,2.62359 -0.62395,2.61373 -2.43676,-0.0213 -4.49877,5.8295 -2.75828,7.82641 1.24332,1.42672 1.15377,1.55497 -0.66108,0.9445 -2.45497,-0.82621 -3.19673,0.96508 -1.29172,3.11921 0.943,1.06606 0.75852,1.58169 -0.70091,1.95648 -3.33288,0.85587 -4.43421,1.63019 -3.99165,2.81424 0.275,0.73573 0.8286,0.42842 1.58188,-0.878 0.99381,-1.72368 1.16551,-1.76694 1.20597,-0.30421 0.0259,0.93801 -0.87382,2.01666 -1.99951,2.39689 -1.52347,0.5152 -1.75309,1.18713 -0.89728,2.63294 0.63249,1.06778 0.6681,1.47537 0.0798,0.90541 -1.41872,-1.37344 -3.41492,-0.58263 -2.14829,0.84829 0.54219,0.61324 0.67855,2.21235 0.30215,3.55303 -0.37632,1.34063 -0.8862,1.89729 -1.1331,1.23672 -0.24682,-0.66035 -1.18453,-0.92567 -2.08414,-0.58942 -1.25758,0.47005 -1.25734,0.82814 0,1.54885 1.24794,0.71519 1.32012,1.54744 0.30407,3.51072 -1.02188,1.97477 -1.46231,2.24677 -1.89313,1.16892 -0.41653,-1.04167 -0.73693,-0.81963 -1.24122,0.86013 -0.3739,1.24547 -1.14813,2.43949 -1.7207,2.6535 -0.57223,0.21388 -1.04786,1.16687 -1.0561,2.11793 -0.008,0.95086 0.45078,1.55469 1.02069,1.34167 0.56986,-0.213 0.91777,0.20965 0.77307,0.93816 -0.14458,0.72883 -0.94098,1.31949 -1.7694,1.31262 -0.9083,-0.008 -1.38249,1.09204 -1.19409,2.77002 0.19568,1.74575 -0.27371,2.77807 -1.25991,2.76949 -2.0136,-0.0171 -3.46027,3.6439 -3.00903,7.61684 0.24193,2.13324 -0.18183,3.09161 -1.36332,3.08129 -1.07565,-0.009 -1.35674,0.39132 -0.75408,1.07516 0.63245,0.71682 -0.0633,1.51736 -2.03268,2.33937 -2.22006,0.9266 -3.55738,2.75585 -5.17563,7.07932 -1.20023,3.20643 -1.98626,5.91916 -1.74683,6.02832 1.22542,0.5586 6.35298,-6.24495 5.80717,-7.70524 -0.47043,-1.2586 0.0573,-1.80692 2.06855,-2.14972 2.64048,-0.44962 4.43813,0.91997 2.27045,1.73019 -2.41959,0.90436 -7.61127,10.3843 -9.03082,16.4901 -0.82963,3.56829 -1.48249,9.70621 -1.4508,13.63966 0.0317,3.93356 -0.24058,7.53648 -0.60502,8.00646 -1.03322,1.33263 -1.46787,-0.78085 -1.61581,-7.85661 l -0.13644,-6.52583 -2.29806,6.02857 c -2.3921,6.27527 -2.6386,9.2931 -0.47322,5.79405 0.99824,-1.61307 1.03117,-1.41461 0.16174,0.97482 -0.82303,2.2619 -1.41019,2.75915 -2.38627,2.02088 -1.38984,-1.05128 -1.35381,-0.0403 0.11048,3.0907 0.64843,1.38618 0.52024,1.67743 -0.43941,1.00005 -1.00871,-0.71188 -2.15039,0.56946 -4.4747,5.0225 -2.26599,4.34116 -2.71453,6.21119 -1.6378,6.82817 0.83221,0.47681 1.86014,2.71881 2.34293,5.11161 0.70782,3.50554 0.48865,4.30006 -1.23304,4.4761 -2.62677,0.26902 -3.22464,-1.08905 -1.07791,-2.44827 1.40551,-0.88985 1.25507,-1.0842 -1.10998,-1.43294 -2.54954,-0.37621 -2.66273,-0.20861 -1.66415,2.46305 1.20526,3.22462 0.25683,8.11121 -1.42543,7.34434 -0.60434,-0.27613 -0.87821,-1.58724 -0.60892,-2.91418 0.82581,-4.06247 0.0574,-4.02249 -1.9296,0.10065 -1.04074,2.15928 -1.44264,4.43438 -0.89315,5.05577 0.54972,0.62129 0.26979,1.95847 -0.6215,2.9712 -0.89146,1.01251 -1.56914,2.86415 -1.50609,4.11411 0.0628,1.24994 -0.40753,2.16903 -1.04573,2.0424 -0.63812,-0.12692 -1.16692,0.52937 -1.17494,1.45806 -0.008,0.92866 -0.83531,2.26603 -1.83818,2.97222 -1.00297,0.70595 -1.72141,2.28227 -1.5966,3.50246 0.12504,1.2201 -0.34225,2.72191 -1.03787,3.33704 -0.69679,0.61591 -0.74325,1.52283 -0.10375,2.01895 0.6495,0.50349 0.62409,0.79368 -0.0586,0.65872 -1.54406,-0.30662 -2.09931,8.30712 -0.72456,11.23835 1.73622,3.70133 2.16937,5.7963 1.26752,6.13337 -0.47303,0.17681 -1.52104,-2.1455 -2.32956,-5.16049 l -1.46996,-5.48167 -1.7129,3.51218 c -1.94591,3.98986 -1.8665,5.55781 0.18925,3.73979 1.16034,-1.02618 1.34117,-0.82964 1.07249,1.16563 -0.1778,1.32 -0.87465,3.33891 -1.54916,4.4868 -0.6746,1.14764 -1.13877,1.53743 -1.03164,0.86592 0.10725,-0.67147 -0.48565,-2.00117 -1.31756,-2.9539 -1.41393,-1.61937 -1.52906,-1.52251 -1.76635,1.48606 -0.13986,1.77003 -0.69205,3.13118 -1.22757,3.02487 -0.5355,-0.10644 -1.08774,0.37046 -1.22385,1.06803 -0.13781,0.69372 0.61067,0.93924 1.66317,0.54586 1.46647,-0.54813 2.12194,-0.0369 2.80605,2.18831 1.07953,3.51023 0.74821,5.67357 -0.96629,6.3144 -0.7024,0.26253 -1.91721,2.00693 -2.69996,3.8766 -0.78283,1.86967 -1.72409,3.26227 -2.09184,3.09463 -0.99329,-0.4528 3.34854,-9.85173 4.80933,-10.41193 0.69052,-0.26528 1.09888,-0.90191 0.90715,-1.41484 -0.19193,-0.51351 -1.87441,0.50339 -3.73892,2.25953 -1.86463,1.75582 -3.16318,3.81392 -2.88564,4.57366 0.31239,0.85501 -0.29179,1.46273 -1.58594,1.59511 -1.14976,0.11763 -2.56154,0.83531 -3.13736,1.59508 -0.67552,0.89202 -0.62538,1.23039 0.14168,0.955 0.65285,-0.23539 0.33581,1.44297 -0.70547,3.72767 -1.86459,4.09033 -2.54888,5.00174 -2.94993,3.92877 z m 9.145,-19.92369 c 0.12301,-0.61948 -0.5994,-2.02958 -1.60539,-3.1335 -1.24588,-1.36814 -1.64868,-1.46423 -1.26382,-0.30192 0.31389,0.93675 0.55776,2.52564 0.54902,3.52833 -0.0163,1.91888 1.93655,1.84095 2.32019,-0.093 z m -39.79562,6.51133 c -0.62198,-0.68392 -0.77155,-0.35566 -0.38121,0.83628 0.34958,1.08036 0.81411,1.58523 1.02386,1.12511 0.20974,-0.46012 -0.0795,-1.34285 -0.64273,-1.96164 z m 36.16657,-21.00639 c -0.64833,-1.73457 -6.62455,0.59088 -8.29143,3.22668 -1.38112,2.1835 0.56464,5.61365 2.0954,3.69426 0.49284,-0.61749 0.56919,-0.14945 0.17035,1.04141 -0.39897,1.19054 -0.24815,2.53495 0.33521,2.98782 1.25437,0.97221 6.42644,-8.98064 5.6904,-10.94983 z m 7.73775,2.04962 c 1.08589,-1.92497 2.28359,-3.79432 2.66159,-4.15398 1.18692,-1.12928 5.53555,-16.82599 4.5606,-16.46158 -1.14701,0.42872 -2.77994,3.92396 -3.66766,7.85036 -0.3682,1.62859 -1.12642,3.13187 -1.68492,3.34064 -0.55875,0.20883 -0.68959,-0.647 -0.29108,-1.90168 0.65524,-2.06415 0.60623,-2.08806 -0.51551,-0.25145 -0.68166,1.11591 -0.85678,2.32599 -0.38925,2.68837 0.91171,0.70651 -1.1691,6.09269 -2.55327,6.61006 -0.45797,0.17115 -1.47374,1.84326 -2.25775,3.71583 -1.24527,2.97439 -1.19869,3.31998 0.36883,2.7341 0.98678,-0.36883 2.68262,-2.24563 3.76852,-4.17061 z m -3.782,-6.59126 c -0.31456,-0.69651 -0.51804,-0.568 -0.54184,0.34364 -0.0203,0.79729 -0.70681,1.70015 -1.52492,2.00594 -0.81805,0.30576 -1.01575,0.92148 -0.43918,1.36875 1.26337,0.97933 3.28181,-2.01543 2.506,-3.71789 z m 22.98943,-43.23551 c 1.06247,-2.89396 1.04857,-3.32078 -0.0551,-1.68405 -0.813,1.20573 -2.04559,3.58019 -2.73908,5.27655 -0.69344,1.69642 -1.66524,2.90008 -2.1594,2.67475 -0.49391,-0.22516 -0.52347,0.59366 -0.0651,1.82012 l 0.83341,2.22976 1.38109,-3.22039 c 0.75956,-1.77125 2.02141,-4.96478 2.80417,-7.09677 z m -5.7445,2.3036 c 1.44906,-2.2919 1.24297,-3.95652 -0.28447,-2.29787 -0.56177,0.60978 -0.47184,0.15823 0.20213,-0.99595 0.67293,-1.15788 1.03029,-2.62213 0.79413,-3.25397 -0.23614,-0.63177 0.0245,-1.31853 0.57855,-1.52558 0.55399,-0.20707 0.81455,-0.89425 0.5783,-1.52632 -0.48751,-1.30433 -4.85065,7.23319 -5.36327,10.49467 -0.41213,2.62195 1.59637,2.10749 3.49475,-0.89464 z m 9.98447,-12.15798 c 1.77955,-3.01996 4.04769,-7.22787 5.04024,-9.35106 0.99257,-2.12312 2.2234,-4.01679 2.73509,-4.20805 0.51191,-0.19133 0.66797,-1.05019 0.34717,-1.90847 -0.32084,-0.85836 1.61366,-6.21906 4.29885,-11.91272 3.74327,-7.93705 4.55533,-10.70675 3.48095,-11.87186 -1.31272,-1.42356 -1.40125,-1.37971 -1.39896,0.69294 0.003,2.07056 -0.0846,2.11382 -1.3571,0.67548 -0.91143,-1.03 -1.8552,-1.09912 -2.86175,-0.20895 -0.93829,0.83012 -0.82722,-0.24078 0.2961,-2.85146 2.00594,-4.6625 3.76656,-5.22957 2.0319,-0.65461 -1.17934,3.11077 0.33979,1.86258 2.49565,-2.05037 1.59539,-2.89604 1.182,-3.6175 -1.49864,-2.61555 -2.22389,0.83121 -10.11123,15.35122 -9.38881,17.28405 0.20173,0.53969 1.30839,-1.00282 2.45963,-3.42694 1.40592,-2.96081 2.64326,-4.29864 3.76905,-4.07529 1.18774,0.23539 1.42242,0.65947 0.80536,1.45527 -0.47836,0.6175 -0.45685,1.44346 0.0484,1.83553 0.50553,0.39177 0.15433,0.70576 -0.78104,0.69807 -1.00955,-0.009 -1.83764,1.00617 -2.03835,2.49817 -0.18619,1.38228 -1.02913,2.77143 -1.87401,3.0872 -0.84478,0.31576 -1.0862,0.9225 -0.53621,1.34921 0.54993,0.42583 0.5196,0.95456 -0.0678,1.17409 -1.87935,0.70243 -2.76675,0.48957 -2.80851,-0.67343 -0.0221,-0.62311 -0.23205,-0.71743 -0.46123,-0.21025 -0.2316,0.50809 -0.18424,1.09463 0.10483,1.30424 0.28905,0.20946 -0.1366,1.96266 -0.94595,3.89571 -0.80928,1.93295 -1.1388,3.39015 -0.73228,3.23821 0.40636,-0.15189 0.62295,0.30898 0.48075,1.02489 -0.17549,0.88332 -0.88027,1.08433 -2.19607,0.62636 -1.06597,-0.37135 -1.70276,-0.2874 -1.41533,0.18618 1.11275,1.83236 1.18031,3.48686 0.15825,3.86888 -0.58731,0.21951 -0.95546,-0.28873 -0.81934,-1.12975 0.13706,-0.84089 -0.71314,0.38148 -1.88789,2.7161 -1.175,2.33467 -2.25778,5.32414 -2.40615,6.64327 -0.1483,1.31909 0.72456,-0.0411 1.94008,-3.02271 l 2.20991,-5.42124 1.05252,4.77623 c 0.57928,2.62677 0.72526,5.4154 0.32491,6.19687 -0.5121,0.99916 -0.73948,0.82908 -0.76685,-0.57543 -0.0571,-2.95119 -1.65352,-1.82136 -2.45866,1.74032 -0.72348,3.19998 -0.40269,5.36055 0.73291,4.9361 0.35874,-0.13407 2.10822,-2.71468 3.8878,-5.73457 z m -24.91373,-23.94257 c -0.62493,-1.67195 -0.65592,-1.65827 -3.78395,1.69836 -1.42232,1.52564 -2.41891,3.22103 -2.21466,3.76749 0.20439,0.54685 0.71987,0.54411 1.14651,-0.007 0.42662,-0.55023 1.06908,-0.21326 1.42814,0.74742 0.55773,1.49218 0.89136,1.26427 2.28823,-1.56173 0.8993,-1.82015 1.41039,-3.91057 1.1357,-4.6455 z m 3.36564,-6.3629 c -0.20734,-0.55479 -0.726,-0.55813 -1.15183,-0.008 -0.42663,0.55023 -0.60559,1.45329 -0.39838,2.00768 0.20736,0.55477 0.72601,0.55811 1.15185,0.008 0.42662,-0.55023 0.60558,-1.45329 0.39836,-2.00766 z m -138.87554,17.74678 c -0.90777,-1.33241 -2.86202,-3.77904 -4.34317,-5.43688 l -2.69279,-3.01427 1.79458,3.20643 c 0.98663,1.76363 2.3614,4.723 3.05426,6.57671 0.96228,2.57452 1.56431,3.10099 2.54859,2.23034 0.91065,-0.8053 0.80457,-1.85093 -0.36129,-3.5624 z m 70.7645,-40.66856 c -1.02708,-0.46819 -1.01176,-0.0261 0.0538,1.48682 0.86581,1.22979 1.49358,1.5159 1.463,0.66691 -0.0297,-0.81749 -0.71294,-1.78658 -1.51606,-2.15397 z m -1.58961,-3.73504 c -0.98429,-0.19566 -1.93135,-0.0434 -2.10503,0.33723 -0.17346,0.38053 0.48949,0.85222 1.47378,1.0474 0.98427,0.19564 1.93133,0.0434 2.10496,-0.33719 0.17346,-0.38053 -0.48948,-0.85214 -1.47371,-1.04744 z m 158.65826,-85.7237 c -0.20736,-0.55478 -0.82996,-0.83866 -1.38474,-0.6313 -0.55399,0.20707 -0.83858,0.82994 -0.6312,1.3848 0.20707,0.55399 0.83073,0.83829 1.38472,0.63122 0.55478,-0.20736 0.83828,-0.83073 0.63122,-1.38472 z m 7.79809,-16.01895 c -0.45442,-1.21575 -0.48372,-3.02213 -0.0644,-4.01437 0.62863,-1.48867 0.44165,-1.4519 -1.06997,0.21087 -1.00764,1.1075 -1.59733,2.64178 -1.31074,3.40855 0.28656,0.76668 0.51414,2.22017 0.50536,3.23004 -0.0121,1.34386 0.3568,1.50641 1.37521,0.60582 0.76513,-0.67673 1.01942,-2.22505 0.56501,-3.44079 z m 4.32242,-11.48716 c 0.13579,-0.68214 -0.20771,-1.07115 -0.76167,-0.86409 -0.55479,0.20735 -1.11892,0.93471 -1.25418,1.61754 -0.13552,0.68295 0.20768,1.07116 0.76167,0.86409 0.55478,-0.20735 1.1189,-0.9347 1.25418,-1.61754 z m -216.19373,54.16903 c -0.62196,-0.68393 -0.77155,-0.35567 -0.38121,0.83627 0.34958,1.08035 0.81413,1.58524 1.02387,1.12511 0.20973,-0.46012 -0.0795,-1.34286 -0.64271,-1.96164 z m -0.0812,-9.0508 c 0.14639,-0.73856 -0.42718,-1.6584 -1.27446,-2.04483 -1.13153,-0.51581 -1.32258,-0.0367 -0.71851,1.8046 0.80072,2.44015 0.78247,2.45402 -0.66896,0.51416 -1.04451,-1.39573 -1.80632,-1.58424 -2.54126,-0.6295 -0.65914,0.85602 -0.49907,2.06501 0.43051,3.25006 1.19641,1.5262 1.76933,1.55809 2.99346,0.16723 0.83241,-0.94613 1.6335,-2.32386 1.7799,-3.06207 z m -50.19888,4.34296 c -0.17973,-1.60381 -0.91067,-3.18186 -1.62378,-3.507 -0.80575,-0.3673 -0.94563,0.83467 -0.369,3.17604 1.07781,4.37682 2.47325,4.60838 1.9931,0.33084 z m -4.39572,-7.31337 c -0.50579,-1.35322 -1.47837,-2.57103 -2.16043,-2.70661 -0.68293,-0.1355 -1.495211,-0.92659 -1.806038,-1.7582 -0.3108,-0.83154 0.0081,-1.39815 0.707832,-1.25939 0.700476,0.1389 1.237866,-1.32381 1.194966,-3.25075 -0.0427,-1.92693 0.55796,-3.74111 1.33529,-4.03166 2.36213,-0.88289 0.59847,-3.21503 -2.600535,-3.43876 -3.808233,-0.26641 -5.010109,0.19875 -7.730104,2.99154 -2.643154,2.71399 -2.512552,6.20976 0.286103,7.6581 1.39028,0.71942 2.291663,2.31717 2.829806,5.01585 0.704033,3.52927 1.023267,3.87273 2.937368,3.1573 1.181396,-0.44158 2.317533,-0.34881 2.524598,0.20518 0.207344,0.55475 1.056924,0.75372 1.888704,0.44283 0.93105,-0.348 1.15868,-1.51049 0.59237,-3.02562 z m -7.916472,-7.82561 c -3.074073,-1.59081 -3.69411,-3.41112 -1.447705,-4.25077 2.572309,-0.96143 6.695383,1.49624 5.801141,3.45796 -0.951708,2.08775 -1.616963,2.20885 -4.353247,0.79311 z m 3.184881,-4.83349 c -0.207065,-0.55399 0.0764,-1.17737 0.63122,-1.38472 0.554784,-0.20736 1.177664,0.0772 1.384729,0.63121 0.207052,0.55399 -0.0772,1.17766 -0.631234,1.38471 -0.55477,0.20736 -1.17765,-0.0772 -1.384715,-0.6312 z m 39.071021,0.0326 c -0.26106,-0.69844 -1.5758,-1.49338 -2.92187,-1.7671 -1.34621,-0.27384 -3.74104,-1.66886 -5.32211,-3.10059 -3.16253,-2.86375 -7.78978,-4.82669 -9.7719,-4.14536 -0.69881,0.24307 -1.42993,0.0162 -1.62239,-0.49877 -0.19254,-0.5151 -2.61336,-2.04914 -5.37981,-3.40938 l -5.02999,-2.47312 1.81405,2.63173 c 2.31841,3.36279 4.86335,4.75843 13.25685,7.27014 3.73489,1.11757 7.00754,2.61217 7.27257,3.32125 0.57619,1.54156 5.83679,4.31615 7.21008,3.80285 0.53257,-0.19905 0.75512,-0.9335 0.49421,-1.63153 z m -50.723844,2.59962 c -0.26639,-0.71272 -1.19778,-1.30243 -2.069304,-1.31011 -1.066519,-0.009 -1.296401,0.75773 -0.702681,2.34619 0.593626,1.58821 1.27025,2.01664 2.069259,1.31003 0.652469,-0.57765 0.969211,-1.63316 0.702726,-2.34611 z m 6.876795,-9.24368 c -0.163815,-0.44985 0.260394,-0.707 0.942316,-0.57202 0.682933,0.13552 1.061372,-0.23387 0.841843,-0.8212 -0.219529,-0.58732 0.508178,-1.40657 1.616949,-1.82098 1.108745,-0.41443 1.84653,-1.2067 1.639182,-1.76146 -0.479371,-1.28251 -1.66237,-0.83002 -4.616957,1.76178 -2.59163,2.27756 -11.695795,6.84422 -12.003541,6.02086 -0.106497,-0.28493 0.254819,-1.50118 0.802831,-2.70339 0.907663,-1.99115 0.664961,-2.29852 -2.726479,-3.45268 -4.25633,-1.4485 -5.555948,-1.23011 -6.624184,1.1134 -1.216046,2.66751 0.02817,4.61011 1.974779,3.08354 1.909668,-1.49712 3.61947,-0.55594 5.379514,2.9618 1.613135,3.22441 3.877167,4.17047 4.853663,2.0283 1.022068,-2.24213 2.252562,-2.57922 2.91783,-0.79932 0.458002,1.22536 0.936227,0.99957 2.923504,-1.37946 1.306675,-1.56472 2.241459,-3.21296 2.077322,-3.66278 z m 23.393389,-11.54793 c -0.8928,-0.77203 -3.975,-2.40033 -6.84967,-3.61836 -4.93235,-2.08997 -7.34667,-2.20241 -14.999138,-0.69871 l -3.210508,0.63103 3.846377,1.38871 c 2.11548,0.76378 5.255529,1.16088 6.977759,0.88242 1.72234,-0.27833 5.8174,0.30817 9.10026,1.30373 6.79137,2.05944 7.40256,2.0727 5.13497,0.11129 z m -25.446351,6.9263 c -1.257239,-1.78576 -0.287544,-3.23801 1.072622,-1.60641 0.381915,0.45788 1.478964,-0.40535 2.437921,-1.91927 l 1.743778,-2.75187 -2.729359,-0.36705 c -3.997203,-0.5377 -6.696758,1.84271 -6.709814,5.91753 -0.01078,3.26957 0.123151,3.44263 1.703694,2.20342 0.963026,-0.75523 1.890952,-0.87321 2.116692,-0.26923 0.221307,0.59209 0.681532,0.97148 1.023591,0.84363 0.342086,-0.12787 0.04514,-1.05075 -0.659084,-2.05122 z m -13.250173,-4.77606 c 4.3028,-2.40065 8.287398,-5.17397 8.854348,-6.16335 0.567193,-0.98901 3.292039,-2.71628 6.055527,-3.83756 2.762869,-1.12314 4.894261,-2.38743 4.735068,-2.81332 -0.1593,-0.42621 -0.969709,-0.52039 -1.801473,-0.20951 -0.831535,0.31082 -1.681341,0.11197 -1.888702,-0.44284 -0.207362,-0.55477 -1.767344,-0.48821 -3.466915,0.14704 -1.699584,0.63525 -4.107499,1.01786 -5.350686,0.85095 -1.504198,-0.20212 -3.019282,0.36238 -4.528144,1.68961 -1.50701,1.32492 -2.185452,1.5785 -2.022408,0.75602 0.134816,-0.67996 -0.572488,-0.92424 -1.572873,-0.54172 -3.023154,1.15715 -5.922145,3.54656 -5.54012,4.56864 0.421957,1.12893 -1.114645,4.79576 -2.175945,5.19244 -0.402383,0.15039 -0.270696,-0.89357 0.298089,-2.32197 1.154532,-2.90856 -0.315674,-2.51444 -3.217508,0.86249 -2.218824,2.58209 0.04638,10.09918 2.39,7.93106 0.7747,-0.71651 4.929018,-3.26708 9.231925,-5.66748 z M 473.00159,93.353924 c 0.43393,-2.18703 -0.8127,-2.00503 -2.30247,0.33777 -1.22313,1.9276 -1.18371,2.12164 0.32313,1.59054 0.94336,-0.33447 1.83461,-1.20042 1.97906,-1.92838 z m 9.33498,-7.14633 c -0.37834,-1.03531 -0.72673,-0.82868 -3.16407,1.8701 -1.16147,1.28622 -1.77904,2.49016 -1.37222,2.67566 0.94422,0.43044 4.9018,-3.53594 4.53627,-4.54584 z m -0.61204,-1.25534 c 1.23969,-0.0627 2.34551,-0.77268 2.51235,-1.613835 0.20652,-1.042252 -0.15558,-1.101132 -1.18346,-0.191759 -0.91187,0.806676 -1.38407,0.819449 -1.22826,0.03301 0.13911,-0.702362 1.25802,-1.327721 2.48584,-1.389539 1.50416,-0.07559 2.008,-0.529816 1.54435,-1.392234 -1.40188,-2.608391 -1.34979,-3.904193 0.18055,-4.476182 0.86431,-0.323061 1.46054,-0.02937 1.32528,0.653425 -0.40799,2.056047 0.80082,0.995457 2.09058,-1.83447 0.66542,-1.459724 0.87973,-2.80449 0.47631,-2.988393 -1.3424,-0.611926 4.09187,-1.874043 6.02128,-1.398486 1.52225,0.375299 1.56435,0.290913 0.212,-0.427483 -1.33016,-0.706431 -1.25902,-1.652587 0.33579,-4.480211 1.11213,-1.971499 1.73347,-4.335408 1.38085,-5.253176 -0.36887,-0.96378 -0.79361,-1.121343 -1.0017,-0.373655 -0.19802,0.711726 -1.72753,2.822773 -3.39863,4.69078 -1.67121,1.867952 -2.90757,3.746792 -2.74751,4.175043 0.16019,0.428588 -0.35107,1.018592 -1.13648,1.312159 -1.95213,0.729646 -12.99087,16.214256 -12.49835,17.531996 0.2495,0.66747 0.76833,0.40751 1.4051,-0.70338 0.55524,-0.96918 2.0061,-1.81195 3.2239,-1.87346 z M 452.54742,37.219723 c -0.61496,-1.645288 -2.9605,0.180549 -2.97919,2.319028 -0.009,1.023631 0.55057,1.112425 1.73769,0.2765 0.96292,-0.678315 1.52163,-1.846069 1.2415,-2.595528 z M 263.05976,495.34321 c -0.14388,-0.38494 0.16443,-1.63404 0.68541,-2.77647 0.52078,-1.14243 1.10771,-1.64664 1.30429,-1.12068 0.19668,0.52622 -0.11156,1.77537 -0.68541,2.77645 -0.57345,1.00131 -1.16057,1.50524 -1.30429,1.1207 z m 13.14878,-23.21826 c -0.31083,-0.8316 -0.21591,-1.96196 0.21,-2.51165 0.42662,-0.55021 1.02872,-0.32121 1.34025,0.51225 0.3108,0.83153 0.2159,1.96196 -0.21002,2.51166 -0.42662,0.55022 -1.02871,0.32122 -1.34023,-0.51226 z m -64.15291,21.99453 c -0.31263,-0.83647 -0.19355,-2.66447 0.26432,-4.0621 0.80039,-2.44223 0.84343,-2.43335 1.10533,0.2291 0.33617,3.41874 -0.5732,5.96385 -1.36958,3.83316 z m 25.21711,-9.37116 c -0.21953,-0.58731 0.1597,-0.957 0.84184,-0.8212 0.68293,0.13552 1.31559,0.44629 1.40696,0.69075 0.0914,0.24445 -0.28785,0.61414 -0.84183,0.8212 -0.55478,0.20736 -1.18746,-0.10348 -1.40695,-0.69067 z m -21.04469,-0.98031 c -0.15723,-0.42064 0.40928,-1.67117 1.25923,-2.778 1.26942,-1.65301 1.63967,-1.76019 2.0735,-0.59952 0.29041,0.77701 -0.0866,1.95615 -0.83764,2.62042 -1.77406,1.56882 -2.14919,1.68252 -2.49509,0.7571 z m 66.14441,-36.61148 c 0.6073,-1.73814 1.15177,-3.39345 1.20997,-3.67842 0.0581,-0.28496 0.34755,0.1288 0.64301,0.91929 0.29547,0.79049 -0.24897,2.44588 -1.20989,3.67839 l -1.74717,2.24091 z m 20.03723,-15.91495 c 1.09469,-2.40143 5.94803,-8.33824 6.22054,-7.60917 0.49722,1.33028 -3.1617,6.97441 -4.95603,7.64508 -0.84916,0.31739 -1.41828,0.30126 -1.26446,-0.0357 z m -5.66281,-4.18824 c -0.51187,-0.39663 -0.57621,-1.17873 -0.14288,-1.73753 0.43328,-0.55904 1.05111,-0.31145 1.37511,0.5554 0.66177,1.77053 0.15443,2.25729 -1.23213,1.18237 z m -119.7634,42.3869 c 0.13552,-0.68293 0.44623,-1.31558 0.69068,-1.40694 0.24445,-0.0913 0.61384,0.28707 0.8212,0.84185 0.20706,0.55398 -0.10347,1.18744 -0.69074,1.40696 -0.58731,0.21952 -0.95701,-0.15971 -0.8212,-0.84184 z m 135.42846,-60.63485 c -0.66041,-1.52021 -1.35034,-1.84125 -2.24786,-1.04728 -1.43506,1.26908 -2.53628,-0.38505 -1.30961,-1.96708 0.42662,-0.55023 0.44604,-1.88012 0.0438,-2.95619 -0.40218,-1.07599 -0.0813,-2.19935 0.71277,-2.49613 0.79423,-0.29685 1.40547,-1.43007 1.35829,-2.51806 -0.10685,-2.46623 4.0761,-12.48255 5.03111,-12.04722 0.38597,0.17596 0.84982,1.642 1.0313,3.25774 0.18148,1.61572 -0.0439,2.76742 -0.50067,2.55922 -0.45685,-0.20825 -1.70234,2.61598 -2.76786,6.27598 -2.01799,6.93128 -2.17686,8.09404 -0.87715,6.41777 0.4266,-0.55023 1.03942,-0.29256 1.36248,0.57177 0.32302,0.86422 0.1667,1.72862 -0.34675,1.92053 -0.51348,0.19192 -0.84474,1.22047 -0.73572,2.28537 0.15138,1.47708 -0.0278,1.4164 -0.75429,-0.25629 z m -140.13792,49.07094 c -1.513,-0.39168 -3.0279,-1.48396 -3.36647,-2.42733 -0.52196,-1.44495 -0.21601,-1.4806 1.92829,-0.21961 1.39916,0.82258 3.27608,1.4481 4.1709,1.38991 1.00077,-0.0647 1.31735,0.29366 0.8223,0.93187 -0.44251,0.57064 -2.04193,0.71805 -3.55541,0.3253 z M 323.49,381.22315 c 0.42665,-0.94462 1.12378,-1.55814 1.55023,-1.36367 0.42631,0.19433 0.0775,0.96713 -0.77507,1.71716 -1.23216,1.08378 -1.39126,1.0112 -0.77523,-0.35337 z m -168.46909,53.48154 c -0.74847,-0.8457 -1.61423,-2.30524 -1.92501,-3.24317 -0.37649,-1.12854 0.0707,-1.00625 1.31802,0.36489 1.03521,1.1385 1.90147,2.59797 1.92499,3.24316 0.0232,0.64533 -0.56986,0.48165 -1.318,-0.36488 z m 172.04285,-75.47487 c -0.77173,-2.06474 8.07731,-14.06889 9.79425,-13.28624 0.36961,0.16849 0.53317,0.51171 0.36661,0.76301 -0.16926,0.25141 -1.92616,3.23469 -3.90441,6.62888 -3.61487,6.20243 -5.48089,7.96103 -6.25362,5.89365 z m -0.38498,-8.84519 c -0.51189,-0.39663 -0.57622,-1.17873 -0.14288,-1.73752 0.43326,-0.55904 1.05117,-0.31147 1.37516,0.55535 0.66178,1.77055 0.15444,2.25732 -1.2322,1.18241 z m 2.06335,-16.97186 c 0.90123,-1.57954 2.16104,-3.04985 2.79946,-3.26749 0.6377,-0.22023 0.42534,0.89591 -0.47781,2.47616 -0.90123,1.57953 -2.16102,3.04993 -2.79946,3.26749 -0.63772,0.22023 -0.42534,-0.89592 0.47781,-2.47616 z m -102.88221,31.31248 c -0.42611,-0.94645 -1.26011,-1.53936 -1.85212,-1.3181 -0.6016,0.22487 -1.12389,-0.55051 -1.18449,-1.75814 -0.0597,-1.18824 -0.69036,-2.27534 -1.40063,-2.41628 -0.71022,-0.14069 -1.59877,-1.07902 -1.97462,-2.0846 -0.37586,-1.00559 -2.41371,-3.5979 -4.52849,-5.76083 -2.11488,-2.16289 -3.86578,-4.50641 -3.89103,-5.20778 -0.0252,-0.70155 0.95247,-0.13801 2.17281,1.25234 9.83719,11.20712 13.05667,15.35586 13.23179,17.05092 0.19017,1.83979 0.15422,1.85496 -0.57363,0.2416 z m -116.0545,29.01774 c -1.11594,-1.95227 -2.83589,-4.79881 -3.82157,-6.32589 -3.10897,-4.81697 -0.19296,-2.29744 3.61745,3.12518 4.27846,6.089 4.23612,6.00162 3.10896,6.42292 -0.48097,0.17977 -1.7885,-1.27007 -2.90468,-3.22226 z M 348.14048,286.53115 c -0.3043,-0.81415 0.12692,-1.73452 0.95866,-2.04542 0.83154,-0.3108 1.66323,-0.16033 1.84838,0.33499 0.1851,0.49527 -0.24614,1.41546 -0.95864,2.0455 -0.78897,0.69741 -1.511,0.56763 -1.8484,-0.33507 z m -151.77174,56.30971 c -0.49256,-0.38124 -0.31457,-1.20722 0.39516,-1.83478 0.78383,-0.69278 1.50718,-0.56047 1.8435,0.33936 0.60935,1.63027 -0.82716,2.58989 -2.23871,1.49526 z m -5.94923,-8.97508 c -0.76248,-0.0217 -1.37908,-0.86933 -1.3705,-1.88311 0.0121,-1.32369 -0.27353,-1.46996 -1.01098,-0.51944 -0.69903,0.90171 -0.93186,0.8458 -0.72908,-0.17434 0.43302,-2.18263 2.5342,-1.91011 3.88142,0.50336 0.64102,1.1487 1.04221,2.09381 0.89005,2.10075 -0.15271,0.003 -0.89945,-0.005 -1.66171,-0.0275 z m -4.33783,-9.12774 c -1.26393,-6.7e-4 -2.56496,0.32189 -2.89087,0.71779 -0.326,0.39593 -1.0097,-0.18885 -1.51943,-1.29899 -0.50997,-1.11042 -1.18451,-2.56889 -1.49907,-3.24108 -0.31452,-0.67213 -1.05397,-1.35808 -1.64323,-1.524 -0.58939,-0.16595 -0.21872,-0.90231 0.8243,-1.63651 1.04264,-0.73435 2.05932,-0.8973 2.25958,-0.36153 0.19994,0.53492 0.69449,0.54636 1.09825,0.0255 1.11006,-1.43172 1.68545,3.59936 0.59478,5.20039 -0.71621,1.05104 -0.61815,1.15152 0.40476,0.41497 0.74236,-0.53437 2.20839,-0.5803 3.25792,-0.10173 2.41445,1.10069 2.06691,1.80732 -0.88787,1.80501 z M 97.694432,356.7556 c -1.285306,-0.27038 -1.467525,-0.64414 -0.759478,-1.55762 0.513217,-0.6622 1.938866,-0.74283 3.173196,-0.18092 1.86843,0.85179 1.99468,1.11069 0.75952,1.5577 -0.81461,0.29584 -2.242994,0.37614 -3.173238,0.18084 z m 155.492648,-63.12673 -1.19262,-3.28776 2.32493,1.98849 c 2.35557,2.01476 2.72781,3.59002 1.00141,4.23531 -0.52145,0.1949 -1.48342,-1.12567 -2.13725,-2.93472 z m 9.01787,-15.7201 c -0.20706,-0.55399 0.10348,-1.18746 0.69067,-1.40695 0.58731,-0.21952 0.957,0.15972 0.8212,0.84186 -0.1355,0.68292 -0.44621,1.31555 -0.69075,1.40696 -0.24445,0.0913 -0.61385,-0.28707 -0.8212,-0.84184 z M 88.039314,338.35253 c 0.502505,-1.19495 0.271982,-2.04501 -0.706283,-2.60598 -1.497935,-0.85838 -1.990241,-4.36884 -0.681868,-4.85787 1.442181,-0.53905 3.276665,7.22011 1.947812,8.23782 -1.039746,0.79657 -1.153397,0.63916 -0.559755,-0.77394 z M 401.59451,195.95606 c -0.44266,-1.18434 2.09211,-3.15733 3.07606,-2.39432 0.46364,0.35949 0.0286,1.2261 -0.96626,1.92657 -0.99481,0.70018 -1.94406,0.91117 -2.10988,0.4675 z m 5.92048,-5.67463 c -0.20707,-0.55398 0.10347,-1.18744 0.69074,-1.40696 0.58733,-0.21953 0.95702,0.15971 0.82122,0.84185 -0.13552,0.68293 -0.44623,1.31555 -0.69068,1.40693 -0.24444,0.0914 -0.61383,-0.28707 -0.82119,-0.84184 z M 47.229849,320.4253 c -2.226442,-1.95946 -4.660607,-8.3115 -3.673107,-9.58514 0.407664,-0.52596 0.264397,-1.49492 -0.31749,-2.15385 -1.165692,-1.31822 -0.143759,-7.46944 1.332634,-8.02127 0.51033,-0.19075 0.746551,0.88412 0.52544,2.38836 -0.582649,3.96136 1.149298,6.32773 5.915046,8.08161 2.307818,0.84928 3.744703,1.73381 3.193108,1.96566 -0.551419,0.23329 -2.649808,-0.25532 -4.662463,-1.08259 -2.012776,-0.82732 -3.885606,-1.41964 -4.161891,-1.31637 -1.183914,0.4425 0.929842,7.65024 2.70104,9.20854 1.060882,0.9337 1.702082,1.78231 1.424925,1.88591 -0.276993,0.10348 -1.301438,-0.51346 -2.276144,-1.37128 z m 8.208994,-2.51741 c -0.514574,-1.37671 3.003946,-6.87275 4.569249,-7.13733 2.658738,-0.44922 2.686333,0.73519 0.09199,3.94638 -2.189949,2.71067 -4.300677,4.15558 -4.661227,3.19095 z M 407.1431,184.67616 c 0.1355,-0.68293 0.44629,-1.31559 0.69073,-1.40696 0.24445,-0.0914 0.61385,0.28706 0.82121,0.84184 0.20707,0.55399 -0.10348,1.18745 -0.69066,1.40694 -0.58733,0.21951 -0.95671,-0.15891 -0.82122,-0.84185 z m 9.32623,-5.78344 c 0.1358,-0.68212 0.44631,-1.31559 0.69076,-1.40696 0.24444,-0.0914 0.61414,0.28787 0.82119,0.84185 0.20706,0.55398 -0.10334,1.18744 -0.69065,1.40694 -0.58733,0.21952 -0.95702,-0.15972 -0.82122,-0.84185 z m -5.79331,-0.13217 c 0.13579,-0.68214 0.44621,-1.31557 0.69065,-1.40694 0.24446,-0.0914 0.61415,0.28786 0.82122,0.84185 0.20736,0.55478 -0.10348,1.18744 -0.69077,1.40696 -0.5873,0.21952 -0.9567,-0.15891 -0.82118,-0.84185 z m 3.21216,-1.3436 c 0.42587,-0.94432 1.12387,-1.55817 1.55024,-1.36367 0.42633,0.19434 0.0775,0.96707 -0.77501,1.71706 -1.23216,1.08377 -1.39126,1.01118 -0.77523,-0.35339 z m 5.59969,-2.56154 c 1.59326,-2.51018 2.8768,-3.24158 3.37069,-1.92019 0.36237,0.96948 -1.6501,3.06014 -3.5845,3.72372 -0.65357,0.22616 -0.55788,-0.58748 0.21426,-1.80325 z m 8.56271,-4.50177 c 0.12073,-0.78054 -0.42671,-1.41027 -1.21571,-1.39877 -0.78889,0.0121 -1.22648,-0.48086 -0.97165,-1.09433 0.25463,-0.61348 1.2012,-0.77913 2.10229,-0.36877 1.26162,0.57511 1.43467,1.15356 0.75169,2.51448 -0.56982,1.13589 -0.80816,1.26006 -0.6672,0.34704 z m -1.49211,-4.42285 c -0.55025,-0.42662 -0.29257,-1.03944 0.57177,-1.3625 0.8643,-0.32305 1.74077,-0.1342 1.94814,0.42062 0.20706,0.55399 -0.0503,1.16764 -0.57166,1.36254 -0.52145,0.1949 -1.39854,0.005 -1.94825,-0.42066 z m 3.39278,-1.79187 c -0.97161,-0.55695 -1.65109,-1.59532 -1.51017,-2.30759 0.34272,-1.72724 4.05798,-3.05711 4.58688,-1.64209 0.22931,0.61352 0.89709,0.67219 1.48453,0.12989 3.1925,-2.94916 4.33466,-3.49692 2.41236,-1.15674 -1.20446,1.46618 -2.73512,2.55769 -3.40138,2.42544 -0.66617,-0.13177 -1.59731,0.25782 -2.06941,0.86569 -0.59803,0.7717 -0.34582,1.21418 0.83317,1.46198 0.99765,0.20964 1.22764,0.53597 0.56063,0.79568 -0.62259,0.24133 -1.92592,-0.0155 -2.89762,-0.5723 z M 55.189935,299.3544 c 0.824628,-0.74964 0.417175,-1.21443 -1.50071,-1.71114 -2.802258,-0.72543 -4.473692,-3.30961 -2.594916,-4.01184 0.629384,-0.23524 0.56083,-1.22263 -0.155084,-2.23968 -0.704113,-1.0005 -0.840833,-1.9833 -0.303482,-2.18414 0.537315,-0.20083 0.599539,-1.12873 0.138255,-2.06205 -1.791989,-3.62548 -1.722776,-4.43985 0.318429,-3.61068 1.305098,0.53145 1.725602,1.27584 1.347911,2.38651 -0.302844,0.89112 0.685947,4.25291 2.206034,7.50423 2.340582,5.00367 2.502935,5.97046 1.083328,6.42399 -1.170314,0.37414 -1.332016,0.22561 -0.539539,-0.49482 z m 4.306926,-2.54502 c 0.754262,-1.18936 1.856632,-2.06616 2.44959,-1.94848 1.790182,0.3552 0.76966,2.47059 -1.600504,3.31748 -2.147694,0.76663 -2.175294,0.72259 -0.849086,-1.369 z M 423.66694,161.26815 c 0.1355,-0.68292 0.4463,-1.31559 0.69074,-1.40696 0.24446,-0.0914 0.61386,0.28708 0.82121,0.84185 0.20706,0.55398 -0.10348,1.18744 -0.69066,1.40693 -0.58732,0.21953 -0.95701,-0.15971 -0.82121,-0.84184 z m 8.72815,-3.47758 c -0.0268,-0.73985 1.11875,-2.28625 2.54532,-3.43536 1.42643,-1.14915 2.8609,-3.00986 3.18754,-4.13519 0.48374,-1.66626 0.92688,-1.89693 2.38782,-1.24255 1.46758,0.65713 1.4151,1.0697 -0.28837,2.26911 -1.22865,0.86539 -1.66971,1.93218 -1.07595,2.60358 0.6141,0.69429 0.39663,1.13387 -0.54744,1.12409 -0.85394,-0.007 -1.67286,0.5801 -1.81644,1.31213 -0.36094,1.81891 -4.33208,3.17928 -4.39246,1.50426 z m -7.19039,-0.092 c -0.38336,-1.02566 0.0288,-1.61439 1.12337,-1.60475 0.95087,0.008 1.58767,-0.36277 1.41532,-0.8239 -0.33625,-0.89962 4.87665,-8.83565 6.10557,-9.29499 0.40558,-0.15158 0.102,1.18513 -0.6747,2.97038 -0.77666,1.78533 -1.59701,3.18068 -1.82314,3.10084 -0.22622,-0.08 -1.09104,1.34663 -1.92216,3.16988 -1.75205,3.84331 -3.36192,4.78967 -4.22426,2.48254 z m 35.24324,-16.35561 c -0.0783,-0.20951 0.41889,-1.29983 1.10461,-2.42331 1.13007,-1.85133 1.1791,-1.82904 0.52335,0.23855 -0.68921,2.1712 -1.31739,3.01448 -1.62745,2.18493 z m -20.69238,4.14709 c -0.62986,-0.71228 -1.63992,-1.11023 -2.24437,-0.8843 -0.60478,0.22605 -0.57963,0.81366 0.0548,1.30587 0.71539,0.55393 0.60889,0.78687 -0.27834,0.61058 -2.04831,-0.40644 -2.67138,-2.76681 -1.09755,-4.15858 0.73694,-0.65173 1.23596,-0.66097 1.10884,-0.021 -0.12719,0.64 0.75054,1.29655 1.95084,1.45786 2.60082,0.34981 5.52896,-2.55231 3.87151,-3.83771 -0.60898,-0.4725 -0.526,-0.73454 0.18917,-0.59262 0.70534,0.13979 2.45572,-1.00835 3.89259,-2.5461 1.43595,-1.54023 2.87699,-2.6791 3.20224,-2.53085 0.97913,0.44633 -1.75374,6.1485 -3.2064,6.69145 -0.7421,0.27737 -1.65972,1.39556 -2.03902,2.48529 -0.37966,1.0897 -1.49278,2.28114 -2.47432,2.64802 -0.98161,0.36689 -2.30001,0.0845 -2.93004,-0.62803 z M 45.672038,291.77829 c -0.07832,-0.20953 0.326889,-1.19941 0.900696,-2.20049 0.854268,-1.49051 1.153565,-1.52395 1.65434,-0.18414 0.336195,0.89947 -0.06892,1.88959 -0.900697,2.20048 -0.831535,0.3108 -1.576021,0.39368 -1.654339,0.18415 z M 439.29508,142.12673 c -0.66259,-0.74906 -0.73928,-2.38206 -0.17132,-3.62844 0.95672,-2.09877 1.08095,-2.1386 1.67948,-0.53726 0.35521,0.95033 0.1919,1.89766 -0.36209,2.10472 -0.55478,0.20736 -0.82849,0.85692 -0.60899,1.44416 0.21952,0.58733 0.80177,0.54789 1.2939,-0.0865 0.55395,-0.7154 0.78687,-0.60889 0.61059,0.27834 -0.38436,1.93675 -1.00895,2.04593 -2.44104,0.42664 z m 12.74912,-9.69151 c -0.69668,-0.54014 -1.09665,-1.35615 -0.88767,-1.81346 0.56492,-1.23926 2.04441,-0.28019 2.10355,1.36371 0.0415,1.15179 -0.19608,1.23969 -1.21534,0.44994 z M 39.676377,281.88425 c -0.773249,-2.06878 -0.654857,-3.26943 0.359455,-3.64854 1.720218,-0.64297 2.615277,0.82336 1.432991,2.34793 -0.433289,0.55904 -0.399796,1.31658 0.07402,1.68401 0.473841,0.36744 0.510542,1.12386 0.07401,1.68394 -0.468139,0.60374 -1.255489,-0.23539 -1.940249,-2.06743 z M 452.24775,128.70348 c -1.34811,-1.18645 -2.43441,-1.25017 -3.8585,-0.22616 -1.91473,1.37689 -1.92925,1.3579 -0.42277,-0.55024 0.8575,-1.08668 1.6867,-2.32577 1.84263,-2.75392 0.71352,-1.96002 5.18545,-7.78031 6.29706,-8.1958 1.32791,-0.49632 -0.48499,3.40004 -2.95786,6.35714 -2.34051,2.79888 -1.72536,4.58358 1.20286,3.4891 1.4321,-0.53527 2.29972,-1.44121 1.92806,-2.01298 -0.37205,-0.57192 -0.18645,-1.45965 0.41143,-1.97275 1.86177,-1.59773 2.32555,2.01675 0.58386,4.55111 -2.15359,3.13391 -2.77467,3.29629 -5.02661,1.31435 z M 161.74611,235.04171 c -0.54994,-0.42583 -0.51961,-0.95456 0.0678,-1.17408 0.58732,-0.21953 1.23688,0.0542 1.44424,0.60896 0.20736,0.55479 0.17675,1.08272 -0.0678,1.1741 -0.24446,0.0914 -0.89401,-0.18235 -1.44424,-0.60898 z M 485.02356,97.361564 c 0.007,-0.84481 0.14294,-1.58511 0.30168,-1.64443 0.15873,-0.0593 0.7467,0.41018 1.30639,1.04339 0.55952,0.633 0.42297,1.37367 -0.30172,1.64453 -0.72621,0.27145 -1.31371,-0.19824 -1.30635,-1.04349 z M 133.85482,224.00366 c 0.61891,-0.56332 1.50149,-0.8525 1.96163,-0.64273 0.46011,0.20975 -0.0462,0.67033 -1.12513,1.02386 -1.19201,0.39132 -1.52042,0.24086 -0.83626,-0.3812 z m -10.87278,-4.32548 c -4.35036,-2.15608 -7.5838,-4.34052 -7.18551,-4.85426 0.39871,-0.51357 1.23969,-0.35117 1.8697,0.36129 0.62993,0.71242 1.6209,0.87492 2.20194,0.36104 0.5813,-0.51397 3.17255,0.32309 5.75887,1.85994 2.58634,1.53682 5.7293,2.74251 6.98451,2.67923 1.2552,-0.0631 2.17925,0.40318 2.05359,1.03647 -0.53427,2.69246 -4.26841,2.23131 -11.6831,-1.44371 z M 105.418,214.64155 c -1.52636,-0.0346 -2.66218,-0.30733 -2.52392,-0.60559 0.45754,-0.98783 6.18689,-1.56622 6.52603,-0.65888 0.40708,1.08915 -0.4074,1.34654 -4.00216,1.26431 z m 244.35979,-91.23653 c 0.13579,-0.68214 0.4462,-1.31556 0.69073,-1.40695 0.24446,-0.0914 0.61415,0.28784 0.82122,0.84183 0.20735,0.55478 -0.10335,1.18753 -0.69072,1.40705 -0.58733,0.21952 -0.95672,-0.15892 -0.82123,-0.84193 z M 75.2324,224.87289 c 0.135799,-0.68214 0.926625,-1.49512 1.75816,-1.80592 0.831611,-0.31083 1.401304,-0.007 1.265732,0.67568 -0.135502,0.68294 -0.92655,1.4951 -1.75816,1.80594 -0.831535,0.3108 -1.401006,0.007 -1.265732,-0.6757 z M 357.93918,112.96833 c -0.10348,-0.277 0.5373,-1.32863 1.4243,-2.3364 0.88686,-1.0081 1.69744,-1.60559 1.80115,-1.32811 0.10348,0.27699 -0.53734,1.32854 -1.42429,2.33639 -0.88687,1.00809 -1.69746,1.60559 -1.80116,1.32812 z M 475.43736,38.527314 c 0.1355,-0.682938 0.67306,-1.400348 1.19473,-1.595335 0.52145,-0.194901 1.11783,0.09868 1.32519,0.653466 0.20707,0.553985 -0.33043,1.27228 -1.19465,1.595301 -0.86431,0.323053 -1.46083,0.02862 -1.32527,-0.653432 z" fill="#64dd17"/></g></svg>