<?xml version="1.0" encoding="UTF-8"?><svg xmlns="http://www.w3.org/2000/svg" xmlns:xlink="http://www.w3.org/1999/xlink" data-name="Layer 1" height="42.0" preserveAspectRatio="xMidYMid meet" version="1.0" viewBox="-0.3 -0.1 38.0 42.0" width="38.0" zoomAndPan="magnify"><g id="change1_1"><path d="M35.15065,39.75468a62.57933,62.57933,0,0,1-11.01758,2.06263,68.52257,68.52257,0,0,1-6.89233.006,1.22827,1.22827,0,0,1-.47327-2.35059,16.32663,16.32663,0,0,1,3.30237-.25366,42.20741,42.20741,0,0,0,8.85047-.86951c-1.91913-.62-3.80329-1.353-5.68287-2.08026-4.78595-1.865-9.51879-4.12164-13.40667-7.53424a32.85733,32.85733,0,0,1-8.825-14.44543,31.52287,31.52287,0,0,1-.61-13.035A1.27334,1.27334,0,0,1,2.551.36192c.60962.5777.26453,1.43665.22754,2.16425a36.95046,36.95046,0,0,0-.177,5.723,29.037,29.037,0,0,0,8.01251,17.433c4.69165,4.63215,10.91,7.04694,17.34308,9.41187,1.38391.52368,2.7912.98083,4.18274,1.48291a4.24856,4.24856,0,0,1,.77588.30109c-3.36823-3.41791-7.126-6.4408-10.21546-10.13025a1.36886,1.36886,0,0,1,1.49543-2.219c1.94256,1.63855,3.74237,4.16919,6.03765,5.96039,2.17756,1.94367,4.257,3.99957,6.25379,6.1275C37.67348,38.08287,36.9164,39.46983,35.15065,39.75468Z" fill="inherit"/></g></svg>